# xmcd
#
# Track frame offsets: 
#        180
#        11595
#        23739
#        34809
#        45920
#        59263
#        68050
#        83096
#        98141
#        109777
#        121097
#        137976
#
# Disc length: 2153 seconds
#
# Revision: 12
# Processed by: cddbd v1.5.2PL0 Copyright (c) Steve Scherf et al.
# Submitted via: ExactAudioCopyFreeDBPlugin 1.0
#
DISCID=9108670c
DTITLE=Various Artist - Blues Collection [Madacy Entertainment] [disc 1]
DYEAR=1999
DGENRE=Blues
TTITLE0=Billie Holiday - I've Got It Bad and That Ain't Good
TTITLE1=Joe Turner - Stormy Monday Blues
TTITLE2=B.B. King - Catfish Blues
TTITLE3=Roy Milton - Information Blues
TTITLE4=Elmore James - Dust My Broom
TTITLE5=Billie Holiday - Please Don't Talk About Me When I'm Gone
TTITLE6=Joe Turner - Squeeze Me, Baby
TTITLE7=B.B. King - B.B. Boogie
TTITLE8=Billie Holiday - Nice Work If You Can Get It
TTITLE9=John Lee Hooker - Boom Boom
TTITLE10=Johnny Otis - Barrelhouse Blues
TTITLE11=Pee Wee Crayton - Blues After Hours
EXTD=
EXTT0=
EXTT1=
EXTT2=
EXTT3=
EXTT4=
EXTT5=
EXTT6=
EXTT7=
EXTT8=
EXTT9=
EXTT10=
EXTT11=
PLAYORDER=
